<?xml version="1.0" standalone="no"?>
<!DOCTYPE svg PUBLIC "-//W3C//DTD SVG 20010904//EN"
 "http://www.w3.org/TR/2001/REC-SVG-20010904/DTD/svg10.dtd">
<svg version="1.0" xmlns="http://www.w3.org/2000/svg"
 width="700.000000pt" height="700.000000pt" viewBox="0 0 700.000000 700.000000"
 preserveAspectRatio="xMidYMid meet">
<metadata>
Created by potrace 1.11, written by Peter Selinger 2001-2013
</metadata>
<g transform="translate(0.000000,700.000000) scale(0.100000,-0.100000)"
fill="#000000" stroke="none">
<path d="M3130 6525 c-386 -47 -718 -149 -1055 -324 -906 -469 -1509 -1343
-1637 -2371 -19 -156 -16 -573 5 -730 94 -676 370 -1255 828 -1734 990 -1037
2577 -1245 3802 -499 712 433 1228 1156 1401 1963 48 221 58 316 63 585 4 204
2 291 -11 405 -67 579 -275 1087 -640 1560 -104 135 -371 402 -506 506 -469
363 -985 575 -1555 639 -160 18 -548 18 -695 0z m671 -350 c694 -81 1352 -443
1789 -985 327 -407 540 -922 591 -1433 17 -176 7 -548 -20 -707 -135 -793
-585 -1462 -1267 -1882 -737 -455 -1673 -523 -2474 -181 -414 177 -781 458
-1065 813 -581 729 -743 1738 -420 2616 48 131 167 376 240 494 149 239 402
525 617 694 300 236 662 416 1015 506 110 27 315 64 408 73 113 10 471 6 586
-8z"/>
<path d="M3446 5888 c-14 -19 -16 -76 -16 -413 l0 -392 23 -21 c29 -28 57 -28
91 -1 l26 20 0 393 c0 443 1 436 -70 436 -29 0 -43 -6 -54 -22z"/>
<path d="M4173 5329 c-44 -9 -80 -34 -97 -67 -7 -15 -132 -333 -276 -707 -144
-374 -264 -685 -267 -691 -2 -6 -31 -14 -63 -17 -221 -20 -372 -246 -302 -452
20 -58 20 -61 3 -80 -10 -11 -147 -230 -305 -486 -262 -426 -287 -470 -288
-512 -2 -118 119 -194 220 -137 43 24 28 2 412 626 l214 349 81 0 c71 0 89 4
147 33 158 77 236 259 178 417 -11 33 -24 69 -26 80 -3 13 101 297 267 725
150 388 276 723 282 746 8 33 6 48 -11 86 -30 69 -96 103 -169 87z m-582
-1682 c55 -37 79 -81 79 -147 0 -102 -68 -170 -170 -170 -102 0 -170 68 -170
170 0 43 6 65 23 91 37 55 81 79 147 79 43 0 65 -6 91 -23z"/>
<path d="M1112 3554 c-16 -11 -22 -25 -22 -54 0 -71 -6 -70 431 -70 376 0 387
1 413 21 35 28 35 70 0 98 -26 20 -37 21 -413 21 -334 0 -390 -2 -409 -16z"/>
<path d="M4922 3547 c-28 -30 -28 -68 1 -95 23 -22 27 -22 413 -22 441 0 434
-1 434 70 0 71 7 70 -435 70 l-392 0 -21 -23z"/>
<path d="M3452 1937 c-22 -23 -22 -27 -22 -413 0 -441 -1 -434 70 -434 71 0
70 -7 70 436 l0 393 -26 20 c-35 27 -65 27 -92 -2z"/>
</g>
</svg>
